<svg width="24" height="24" viewBox="0 0 24 24" fill="none" xmlns="http://www.w3.org/2000/svg">
<path d="M1 1.18652H5L7.68 14.5765C7.77144 15.0369 8.02191 15.4505 8.38755 15.7448C8.75318 16.0392 9.2107 16.1955 9.68 16.1865H19.4C19.8693 16.1955 20.3268 16.0392 20.6925 15.7448C21.0581 15.4505 21.3086 15.0369 21.4 14.5765L23 6.18652H6M10 21.1865C10 21.7388 9.55228 22.1865 9 22.1865C8.44772 22.1865 8 21.7388 8 21.1865C8 20.6342 8.44772 20.1865 9 20.1865C9.55228 20.1865 10 20.6342 10 21.1865ZM21 21.1865C21 21.7388 20.5523 22.1865 20 22.1865C19.4477 22.1865 19 21.7388 19 21.1865C19 20.6342 19.4477 20.1865 20 20.1865C20.5523 20.1865 21 20.6342 21 21.1865Z" stroke="#1E1E1E" stroke-width="2.5" stroke-linecap="round" stroke-linejoin="round"/>
</svg>
