<svg width="16" height="17" viewBox="0 0 16 17" fill="none" xmlns="http://www.w3.org/2000/svg">
  <g clip-path="url(#clip0_228_1147)">
    <path d="M2 4.87321H3.33333M3.33333 4.87321H14M3.33333 4.87321L3.33333 14.2065C3.33333 14.5602 3.47381 14.8993 3.72386 15.1494C3.97391 15.3994 4.31304 15.5399 4.66667 15.5399H11.3333C11.687 15.5399 12.0261 15.3994 12.2761 15.1494C12.5262 14.8993 12.6667 14.5602 12.6667 14.2065V4.87321M5.33333 4.87321V3.53988C5.33333 3.18625 5.47381 2.84712 5.72386 2.59707C5.97391 2.34702 6.31304 2.20654 6.66667 2.20654H9.33333C9.68696 2.20654 10.0261 2.34702 10.2761 2.59707C10.5262 2.84712 10.6667 3.18625 10.6667 3.53988V4.87321" stroke="#EC221F" stroke-width="1.6" stroke-linecap="round" stroke-linejoin="round" />
  </g>
  <defs>
    <clipPath id="clip0_228_1147">
      <rect width="16" height="16" fill="white" transform="translate(0 0.873047)" />
    </clipPath>
  </defs>
</svg>