<svg width="25" height="25" viewBox="0 0 25 25" fill="none" xmlns="http://www.w3.org/2000/svg">
  <g clip-path="url(#clip0_769_771)">
    <path d="M12.98 2.90897C16.184 2.90897 16.564 2.92097 17.83 2.97897C21.082 3.12697 22.601 4.66997 22.749 7.89797C22.807 9.16297 22.818 9.54297 22.818 12.747C22.818 15.952 22.806 16.331 22.749 17.596C22.6 20.821 21.085 22.367 17.83 22.515C16.564 22.573 16.186 22.585 12.98 22.585C9.77601 22.585 9.39601 22.573 8.13101 22.515C4.87101 22.366 3.36001 20.816 3.21201 17.595C3.15401 16.33 3.14201 15.951 3.14201 12.746C3.14201 9.54197 3.15501 9.16297 3.21201 7.89697C3.36101 4.66997 4.87601 3.12597 8.13101 2.97797C9.39701 2.92097 9.77601 2.90897 12.98 2.90897ZM12.98 0.745972C9.72101 0.745972 9.31301 0.759972 8.03301 0.817972C3.67501 1.01797 1.25301 3.43597 1.05301 7.79797C0.994011 9.07897 0.980011 9.48697 0.980011 12.746C0.980011 16.005 0.994011 16.414 1.05201 17.694C1.25201 22.052 3.67001 24.474 8.03201 24.674C9.31301 24.732 9.72101 24.746 12.98 24.746C16.239 24.746 16.648 24.732 17.928 24.674C22.282 24.474 24.71 22.056 24.907 17.694C24.966 16.414 24.98 16.005 24.98 12.746C24.98 9.48697 24.966 9.07897 24.908 7.79897C24.712 3.44497 22.291 1.01897 17.929 0.818972C16.648 0.759972 16.239 0.745972 12.98 0.745972ZM12.98 6.58397C9.57701 6.58397 6.81801 9.34297 6.81801 12.746C6.81801 16.149 9.57701 18.909 12.98 18.909C16.383 18.909 19.142 16.15 19.142 12.746C19.142 9.34297 16.383 6.58397 12.98 6.58397ZM12.98 16.746C10.771 16.746 8.98001 14.956 8.98001 12.746C8.98001 10.537 10.771 8.74597 12.98 8.74597C15.189 8.74597 16.98 10.537 16.98 12.746C16.98 14.956 15.189 16.746 12.98 16.746ZM19.386 4.90097C18.59 4.90097 17.945 5.54597 17.945 6.34097C17.945 7.13597 18.59 7.78097 19.386 7.78097C20.181 7.78097 20.825 7.13597 20.825 6.34097C20.825 5.54597 20.181 4.90097 19.386 4.90097Z" fill="#1E1E1E" />
  </g>
  <defs>
    <clipPath id="clip0_769_771">
      <rect width="24" height="24" fill="white" transform="translate(0.980011 0.745972)" />
    </clipPath>
  </defs>
</svg>