<svg width="50" height="57" viewBox="0 0 50 57" fill="none" xmlns="http://www.w3.org/2000/svg">
<path d="M16.6926 1.06548C18.9367 0.406831 21.2693 0.00851848 23.6123 0.0137252C25.5909 -0.0201184 27.5798 -0.00840332 29.5441 0.249329C30.9824 0.529189 32.426 0.811653 33.8214 1.26464C34.5724 1.52367 35.2402 1.97014 35.9874 2.23959C37.1602 2.67305 38.156 3.44234 39.2155 4.08407C40.2595 4.73881 41.2526 5.5081 42.0024 6.49607C42.7561 7.48795 43.5384 8.46551 44.1567 9.55111C44.9104 10.8775 45.7578 12.1506 46.4463 13.5147C46.9943 14.5222 47.3666 15.6117 47.8717 16.6413C48.2544 17.4341 48.6631 18.2151 49.0028 19.0286C49.2371 19.6027 49.5873 20.1324 49.7461 20.7364C49.8268 21.1074 49.353 21.2037 49.1278 21.3834C46.9865 22.5692 45.1043 24.1494 43.0425 25.4563C43.0151 25.6125 43.1153 25.7375 43.2208 25.8403C44.2895 26.8829 45.5976 27.6249 46.7483 28.5673C47.558 29.2364 48.4132 29.8468 49.2241 30.5146C49.5196 30.7775 49.8476 31.0522 49.9856 31.4362C50.0741 31.9074 49.7253 32.3031 49.4766 32.6637C47.804 34.7099 45.8033 36.449 44.0018 38.3754C41.349 41.1051 38.5855 43.7279 35.9483 46.4719C34.9577 47.5197 33.8891 48.4882 32.8685 49.5074C31.5148 50.9275 30.1702 52.3594 28.7579 53.7222C28.0784 54.3496 27.3143 54.8768 26.64 55.5094C26.243 55.8231 25.9033 56.2396 25.4269 56.431C24.4155 56.2722 23.7256 55.4274 22.9849 54.8C21.4164 53.4684 19.939 52.0352 18.5124 50.5552C16.9503 48.949 15.292 47.4403 13.704 45.8601C12.1224 44.4504 10.7114 42.8649 9.17413 41.4083C7.8282 40.0208 6.4341 38.6813 5.09728 37.2859C4.45295 36.583 3.77478 35.914 3.07968 35.2631C2.06958 34.2804 0.963157 33.3562 0.217297 32.143C0.0884308 31.8983 -0.115932 31.5833 0.0832241 31.319C0.327939 30.9546 0.691107 30.6955 1.02434 30.4157C2.53168 29.2364 4.06896 28.0922 5.51121 26.8335C5.95899 26.4104 6.67622 26.1735 6.86886 25.5487C6.38985 25.0476 5.76374 24.7078 5.22615 24.2705C4.30977 23.63 3.47019 22.8829 2.52517 22.2789C1.95634 21.8975 1.34064 21.533 0.94233 20.9603C0.84861 20.5776 1.00091 20.1884 1.11936 19.8278C2.09692 17.3963 3.47669 15.16 4.6417 12.8209C5.60884 11.1001 6.49658 9.33243 7.56656 7.67279C8.17965 6.8254 8.73417 5.90511 9.56203 5.24516C10.8949 4.27802 12.0873 3.08959 13.5946 2.38408C14.6164 1.92068 15.6344 1.44297 16.6926 1.06548ZM20.1277 2.67175C19.1111 2.92558 17.9539 2.98415 17.143 3.7235C17.0636 3.98644 17.2706 4.20122 17.4398 4.37174C18.9211 5.76063 20.8645 6.52992 22.817 6.9803C23.749 7.18596 24.6849 7.55304 25.6547 7.40595C26.8223 7.2107 27.9222 6.75901 29.0299 6.3568C30.2405 5.92334 31.3521 5.25297 32.3999 4.51622C32.6746 4.27802 33.0443 4.06845 33.1289 3.68836C32.0225 3.11432 30.7781 2.91256 29.5701 2.66003C27.8311 2.26172 26.0347 2.3242 24.2619 2.31509C22.8795 2.32811 21.4763 2.3229 20.1277 2.67175ZM34.6688 6.00795C32.564 8.02164 29.6508 8.79744 26.8978 9.4665C26.8509 9.59667 26.8717 9.71512 26.9602 9.82186C28.2984 11.5661 29.8213 13.175 30.9941 15.0442C31.0423 15.1796 31.2089 15.2759 31.3313 15.1639C31.7725 14.8255 32.1826 14.448 32.6382 14.1278C33.5194 13.503 34.2106 12.6634 34.9942 11.9293C35.645 11.3214 36.2633 10.681 36.8751 10.0353C37.1003 9.78802 37.3541 9.50425 37.3255 9.14369C37.2864 8.1492 37.056 7.16514 36.6564 6.25396C36.4456 5.78145 36.3362 5.23996 35.9665 4.85857C35.4771 5.17227 35.1074 5.63306 34.6688 6.00795ZM14.0463 5.15925C13.1573 6.18237 13.0974 7.59599 13.005 8.88075C13.0141 9.34154 12.9217 9.88174 13.2588 10.254C13.5543 10.6068 13.9174 10.8944 14.2611 11.199C14.8182 11.6833 15.2803 12.2677 15.8491 12.7389C16.3919 13.1919 16.8592 13.7295 17.419 14.163C17.8784 14.4884 18.295 14.8685 18.7284 15.2264C18.912 15.4087 19.1489 15.2472 19.2751 15.0858C20.6914 13.4587 21.9943 11.7366 23.3949 10.0965C23.5525 9.9286 23.6058 9.7008 23.5785 9.47691C22.3888 9.4639 21.2446 9.10854 20.1408 8.69721C18.623 8.07891 17.0857 7.43849 15.7788 6.43229C15.3285 6.10297 14.9341 5.70856 14.5136 5.34409C14.3808 5.23996 14.2311 5.09287 14.0463 5.15925ZM39.8937 8.36138C39.8039 9.74766 39.7726 11.1431 39.6177 12.5267C39.2689 14.8646 38.743 17.1711 38.0948 19.4425C37.8618 20.5568 37.5364 21.6476 37.1888 22.7319C36.4742 24.631 35.9939 26.6083 35.3196 28.523C34.5022 30.9103 33.7485 33.321 32.8334 35.6745C31.9222 37.9277 31.0761 40.2069 30.3055 42.5122C29.4621 44.7992 28.5743 47.0706 27.5694 49.2926C26.9342 50.4186 26.519 51.6486 26.122 52.8748C26.3771 52.7147 26.614 52.526 26.8184 52.3073C27.667 51.4195 28.4311 50.4524 29.3449 49.6284C30.5073 48.5793 31.6007 47.4572 32.7241 46.3651C33.2578 45.8562 33.7029 45.2652 34.2171 44.7367C35.2675 43.7032 36.3193 42.6723 37.3528 41.6218C38.5478 40.4282 39.6477 39.146 40.8595 37.9693C42.4853 36.3839 44.0565 34.7399 45.7395 33.2143C46.1287 32.8043 46.6312 32.4697 46.8824 31.9491C44.8297 30.1215 42.5699 28.5478 40.4638 26.7853C40.0577 26.4378 39.5826 26.1397 39.3053 25.6698C39.4212 25.3235 39.7349 25.1074 40.0043 24.8862C41.1498 24.0349 42.2575 23.1328 43.4356 22.3245C44.3428 21.7166 45.1733 20.9928 46.143 20.48C46.3643 20.3147 46.7106 20.217 46.7991 19.9372C46.6767 19.5675 46.4359 19.2564 46.242 18.9232C45.6484 17.9599 45.2449 16.8965 44.7125 15.9007C44.2621 15.0169 43.7428 14.1708 43.2702 13.2986C42.5374 11.9774 41.5937 10.7877 40.8556 9.47041C40.6083 9.06428 40.4079 8.59828 40.0069 8.31582L39.8937 8.36138ZM10.1413 8.94062C8.39703 10.6771 7.25156 12.8808 6.01366 14.9804C5.13113 16.3758 4.53496 17.9222 3.80862 19.3996C3.7175 19.6599 3.50663 20.014 3.76827 20.2431C4.34491 20.8197 5.08557 21.1868 5.72859 21.6814C6.53694 22.3023 7.30623 22.9753 8.13149 23.5767C8.919 24.1741 9.74166 24.7326 10.4576 25.4185C10.6099 25.5917 10.8416 25.7635 10.8168 26.0212C10.3014 26.5614 9.64924 26.9506 9.04917 27.388C7.50799 28.3721 6.14253 29.5917 4.72891 30.7411C4.21865 31.1707 3.56261 31.3802 3.06536 31.8241C3.08099 32.2081 3.47539 32.4216 3.70319 32.6884C5.19361 34.0617 6.5838 35.5365 8.0638 36.9215C9.46831 38.3377 10.9457 39.681 12.3073 41.1402C12.9568 41.8353 13.6975 42.438 14.3587 43.1227C15.8921 44.669 17.5244 46.1165 19.0148 47.7072C20.2045 48.9464 21.4385 50.1426 22.597 51.4143C23.1867 51.9324 23.7282 52.5741 24.4753 52.8644C24.6146 51.8621 23.9872 51.0186 23.5876 50.1582C23.0878 49.0388 22.4421 47.9948 21.9215 46.8871C21.5947 46.2141 21.3982 45.4891 21.1404 44.7901C19.896 41.6869 18.4902 38.641 17.4775 35.4493C16.3763 32.6676 15.348 29.8534 14.5019 26.9819C14.2468 26.0056 13.9005 25.058 13.5998 24.0947C13.0779 22.5965 12.69 21.0553 12.1836 19.5506C11.8139 17.9743 11.4495 16.394 11.0082 14.8346C10.645 13.6084 10.5891 12.3315 10.4719 11.0676C10.3274 10.2983 10.4511 9.52638 10.5448 8.76099C10.4003 8.79614 10.2467 8.82738 10.1413 8.94062ZM36.6668 13.7308C36.206 14.1369 35.7908 14.5912 35.3587 15.0273C34.3668 16.0907 33.0885 16.8249 32.0732 17.8649C31.7569 18.1174 31.4849 18.5548 31.0631 18.5965C30.4253 18.1617 29.9359 17.5486 29.4438 16.9616C29.3501 16.821 29.164 16.8431 29.0221 16.8691C28.6967 17.3495 28.5626 17.9443 28.1682 18.3817C28.0107 18.5691 27.8206 18.7331 27.7022 18.9505C27.641 19.2916 27.7178 19.6365 27.7647 19.9749C28.1617 22.3804 28.4455 24.8016 28.6355 27.2305C28.7032 27.772 28.6876 28.4007 29.0846 28.825C29.4451 28.6832 29.6508 28.3304 29.902 28.057C30.575 27.2149 31.3768 26.4898 32.0836 25.6789C32.9037 24.7664 33.9906 24.0661 34.5503 22.9402C35.2467 21.5461 35.6424 20.0283 36.0017 18.5184C36.3271 17.231 36.7671 15.9749 37.1055 14.6901C37.2031 14.3296 37.2396 13.943 37.1276 13.5798C36.9623 13.5876 36.7827 13.598 36.6668 13.7308ZM13.4736 13.969C13.4684 14.1942 13.4866 14.4194 13.5256 14.6407C14.0242 17.1451 14.6256 19.6378 15.5406 22.0251C16.1355 23.5246 17.2432 24.7222 18.2715 25.934C19.1528 27.0886 20.0548 28.2276 21.0077 29.3236C21.1053 29.4355 21.2355 29.5097 21.3682 29.5722C21.4672 29.0125 21.4528 28.441 21.5414 27.88C21.6273 27.2292 21.8603 26.6018 21.8603 25.9405C21.8876 23.9711 22.1492 22.0069 22.6192 20.0947C22.6673 19.8057 22.7858 19.4946 22.6725 19.2096C22.4421 18.9115 22.0764 18.7527 21.8486 18.452C21.5453 18.0224 21.4555 17.4822 21.1574 17.0501C21.0793 16.8848 20.8319 16.9524 20.7434 17.0696C20.2019 17.6645 19.8648 18.5249 19.0539 18.8138C18.6816 18.6277 18.433 18.2775 18.1362 17.999C16.9191 16.8236 15.486 15.889 14.347 14.629C14.0828 14.3842 13.8602 14.0172 13.4736 13.969ZM17.6272 28.4176C17.4385 28.8706 17.7079 29.3236 17.8355 29.7531C18.2403 30.9936 18.6868 32.2198 19.0838 33.4629C19.486 34.6396 20.008 35.7734 20.3985 36.954C20.6679 37.7116 20.8762 38.4991 21.2797 39.1994C21.4958 39.5717 21.6767 39.9635 21.8004 40.3774C22.0711 41.2639 22.4577 42.11 22.8743 42.9391C23.7165 44.6495 24.284 46.4992 25.3188 48.112C25.7588 48.0612 25.8577 47.5379 26.0126 47.2008C26.6062 45.4019 27.3507 43.6576 27.9612 41.8652C29.5154 38.188 30.821 34.4157 32.3101 30.7138C32.5236 30.1267 32.797 29.5488 32.849 28.9188C32.5054 29.0151 32.2906 29.3145 32.0628 29.5657C31.1998 30.5693 30.1598 31.3945 29.2551 32.3565C28.2138 33.3562 27.2596 34.4405 26.269 35.4883C25.9306 35.8372 25.6911 36.3123 25.2381 36.5271C24.7096 36.7132 24.2176 36.311 23.8922 35.9374C23.0773 34.9755 22.3107 33.9628 21.3747 33.1115C21.0376 32.7991 20.6966 32.4906 20.3933 32.1456C19.7073 31.3815 19.2452 30.4482 18.5631 29.6815C18.2052 29.2936 17.9604 28.8224 17.6272 28.4176Z" fill="#1E1E1E"/>
<path d="M41.1121 30.939C42.0271 30.7529 42.8875 31.9361 42.3981 32.7392C42.0167 33.3367 41.1016 33.3601 40.6226 32.8707C39.9353 32.3318 40.3597 31.1902 41.1121 30.939Z" fill="#1E1E1E"/>
<path d="M8.42701 31.1745C8.76935 31.0444 9.25618 30.9923 9.5035 31.3255C9.86666 31.7772 10.0736 32.5517 9.5842 32.9891C8.99714 33.5618 7.96622 33.1921 7.61086 32.5387C7.57311 31.9842 7.93497 31.4192 8.42701 31.1745Z" fill="#1E1E1E"/>
<path d="M24.8307 39.0107C25.5648 38.7712 26.3705 39.3036 26.5606 40.0182C26.7025 40.7393 26.1232 41.329 25.626 41.7598C24.858 42.1165 23.7802 41.6843 23.5537 40.8369C23.3012 40 24.1356 39.2905 24.8307 39.0107Z" fill="#1E1E1E"/>
</svg>
